<?xml version="1.0" encoding="utf-8"?>
<!-- Generator: Adobe Illustrator 23.0.5, SVG Export Plug-In . SVG Version: 6.00 Build 0)  -->
<svg version="1.1" id="Capa_1" xmlns="http://www.w3.org/2000/svg" xmlns:xlink="http://www.w3.org/1999/xlink" x="0px" y="0px"
	 viewBox="0 0 478.2 126.6" enable-background="new 0 0 478.2 126.6" xml:space="preserve">
<g>
	<g>
		<g>
			<path fill="#161620" d="M52.094,47.952v9.184H24.758V18.78h26.85v9.184H35.292v5.402H49.23v8.536H35.292v6.051H52.094z"/>
			<path fill="#161620" d="M80.694,38.282v18.854H70.159V18.78h8.212l15.397,19.502V18.78h10.535v38.357h-8.374L80.694,38.282z"/>
			<path fill="#161620" d="M38.345,107.7c-2.917,0-5.565-0.558-7.941-1.675c-2.377-1.116-4.412-2.584-6.105-4.403
				c-1.693-1.818-3.008-3.898-3.944-6.24c-0.937-2.341-1.405-4.754-1.405-7.239c0-2.52,0.486-4.952,1.459-7.293
				c0.973-2.341,2.332-4.403,4.079-6.186c1.747-1.783,3.817-3.205,6.213-4.268c2.395-1.062,5.015-1.594,7.861-1.594
				c2.917,0,5.564,0.559,7.941,1.675c2.377,1.117,4.411,2.593,6.105,4.43c1.693,1.837,2.999,3.926,3.917,6.267
				c0.918,2.341,1.378,4.736,1.378,7.185c0,2.521-0.486,4.943-1.459,7.266c-0.972,2.323-2.323,4.376-4.052,6.159
				c-1.729,1.783-3.791,3.214-6.186,4.295C43.81,107.16,41.189,107.7,38.345,107.7z M29.647,88.251c0,1.297,0.18,2.548,0.54,3.755
				c0.36,1.207,0.9,2.278,1.621,3.214c0.72,0.937,1.629,1.693,2.728,2.269c1.098,0.577,2.404,0.864,3.917,0.864
				s2.827-0.297,3.944-0.891c1.116-0.594,2.026-1.368,2.728-2.323c0.702-0.954,1.224-2.044,1.567-3.268
				c0.342-1.224,0.513-2.466,0.513-3.728c0-1.297-0.181-2.547-0.54-3.754c-0.36-1.206-0.91-2.269-1.648-3.187
				c-0.739-0.919-1.657-1.656-2.755-2.215c-1.099-0.558-2.386-0.837-3.863-0.837c-1.513,0-2.819,0.289-3.917,0.865
				c-1.099,0.577-2.008,1.342-2.728,2.296c-0.721,0.955-1.252,2.035-1.594,3.242C29.817,85.758,29.647,86.991,29.647,88.251z"/>
			<path fill="#161620" d="M103.546,78.203H92.525v29.173H81.99V78.203H70.916v-9.184h32.63V78.203z"/>
			<g>
				<linearGradient id="SVGID_2_" gradientUnits="userSpaceOnUse" x1="-43.0119" y1="82.6554" x2="75.3701" y2="-36.6662">
					<stop  offset="0.0054" style="stop-color:#19B5FE"/>
					<stop  offset="1" style="stop-color:#58DBE3"/>
				</linearGradient>
				<polygon fill="url(#SVGID_2_)" points="57.901,4.314 11.591,4.314 3.184,4.314 3.184,12.721 3.184,59.031 11.591,59.031 
					11.591,12.721 57.901,12.721 				"/>
				<linearGradient id="SVGID_3_" gradientUnits="userSpaceOnUse" x1="0.1494" y1="125.4769" x2="118.5315" y2="6.1553">
					<stop  offset="0.0054" style="stop-color:#19B5FE"/>
					<stop  offset="1" style="stop-color:#58DBE3"/>
				</linearGradient>
				<polygon fill="url(#SVGID_3_)" points="112.167,4.314 65.857,4.314 65.857,12.721 112.167,12.721 112.167,59.031 
					120.574,59.031 120.574,12.721 120.574,4.314 				"/>
			</g>
			<g>
				<linearGradient id="SVGID_4_" gradientUnits="userSpaceOnUse" x1="43.062" y1="168.0516" x2="161.4441" y2="48.73">
					<stop  offset="0.0054" style="stop-color:#19B5FE"/>
					<stop  offset="1" style="stop-color:#58DBE3"/>
				</linearGradient>
				<polygon fill="url(#SVGID_4_)" points="112.167,66.987 112.167,113.297 65.857,113.297 65.857,121.704 112.167,121.704 
					120.574,121.704 120.574,113.297 120.574,66.987 				"/>
				<linearGradient id="SVGID_6_" gradientUnits="userSpaceOnUse" x1="-0.0993" y1="125.2301" x2="118.2828" y2="5.9085">
					<stop  offset="0.0054" style="stop-color:#19B5FE"/>
					<stop  offset="1" style="stop-color:#58DBE3"/>
				</linearGradient>
				<polygon fill="url(#SVGID_6_)" points="57.901,113.297 11.591,113.297 11.591,66.987 3.184,66.987 3.184,113.297 3.184,121.704 
					11.591,121.704 57.901,121.704 				"/>
			</g>
		</g>
		<circle fill="#19B5FE" cx="103.546" cy="103.996" r="4.228"/>
	</g>
	<g>
		<g>
			<path fill="#161620" d="M179.167,80.898V78.3c-2.17,2.17-5.327,3.255-9.471,3.255c-4.406,0-7.98-1.578-10.72-4.735
				c-2.741-3.157-4.111-7.366-4.111-12.628c0-5.283,1.579-9.794,4.736-13.532s6.916-5.607,11.279-5.607
				c3.639,0,6.401,0.855,8.287,2.565V31.275h6.248v49.623H179.167z M179.167,53.867c-1.579-2.368-3.738-3.551-6.478-3.551
				c-3.354,0-6.067,1.25-8.139,3.749c-2.071,2.499-3.107,5.678-3.107,9.536c0,8.485,3.858,12.726,11.575,12.726
				c0.987,0,2.17-0.312,3.551-0.937c1.381-0.625,2.247-1.287,2.598-1.989V53.867z"/>
			<path fill="#161620" d="M250.961,63.929h-25.387c0,4.122,1.129,7.29,3.387,9.504c1.995,1.929,4.56,2.894,7.695,2.894
				c3.573,0,6.555-1.041,8.945-3.124l2.631,4.505c-0.965,0.965-2.445,1.798-4.439,2.499c-2.499,0.921-5.284,1.381-8.353,1.381
				c-4.429,0-8.188-1.502-11.28-4.505c-3.442-3.31-5.163-7.761-5.163-13.351c0-5.809,1.765-10.468,5.295-13.976
				c3.157-3.135,6.895-4.702,11.213-4.702c5.02,0,8.956,1.414,11.806,4.242c2.762,2.718,4.144,6.325,4.144,10.819
				C251.454,61.496,251.29,62.768,250.961,63.929z M235.801,50.315c-2.784,0-5.119,0.899-7.005,2.696
				c-1.798,1.71-2.817,3.837-3.058,6.38h19.5c0-2.521-0.789-4.625-2.368-6.314C241.139,51.236,238.782,50.315,235.801,50.315z"/>
			<path fill="#161620" d="M282.668,78.826l2.204-5.919c3.486,2.281,6.292,3.42,8.418,3.42c3.858,0,5.788-1.622,5.788-4.867
				c0-2.323-1.863-4.319-5.59-5.985c-2.872-1.316-4.807-2.313-5.804-2.993c-0.998-0.679-1.864-1.452-2.598-2.318
				c-0.735-0.866-1.282-1.787-1.644-2.762c-0.362-0.975-0.543-2.023-0.543-3.141c0-2.894,1.052-5.152,3.157-6.774
				c2.105-1.622,4.856-2.433,8.254-2.433c2.565,0,5.798,0.811,9.701,2.433l-1.776,5.788c-2.478-1.973-4.966-2.96-7.465-2.96
				c-1.491,0-2.746,0.351-3.766,1.052c-1.019,0.702-1.529,1.59-1.529,2.664c0,2.258,1.282,3.968,3.848,5.13l4.472,2.039
				c2.74,1.25,4.735,2.675,5.985,4.275c1.25,1.6,1.875,3.606,1.875,6.018c0,3.157-1.108,5.629-3.322,7.416
				c-2.215,1.787-5.284,2.68-9.208,2.68C289.421,81.588,285.935,80.668,282.668,78.826z"/>
			<path fill="#161620" d="M342.196,80.931V50.973h-4.834v-5.262h11.082v35.22H342.196z M345.616,32.393
				c1.074,0,1.989,0.378,2.746,1.135c0.756,0.756,1.135,1.661,1.135,2.713c0,1.074-0.378,1.989-1.135,2.746
				s-1.672,1.135-2.746,1.135c-1.052,0-1.957-0.378-2.713-1.135c-0.756-0.756-1.134-1.671-1.134-2.746
				c0-1.074,0.372-1.984,1.118-2.73C343.632,32.766,344.542,32.393,345.616,32.393z"/>
			<path fill="#161620" d="M384.032,90.566l3.387-4.999c3.639,2.433,6.993,3.65,10.063,3.65c2.828,0,5.059-0.488,6.692-1.463
				c1.633-0.976,2.45-2.187,2.45-3.634c0-2.85-2.061-4.275-6.182-4.275c-0.702,0-1.973,0.176-3.814,0.526
				c-1.842,0.351-3.278,0.526-4.308,0.526c-4.998,0-7.498-1.885-7.498-5.656c0-1.162,0.586-2.214,1.76-3.157
				c1.172-0.942,2.625-1.622,4.357-2.039c-4.955-2.323-7.432-6.357-7.432-12.101c0-3.683,1.283-6.752,3.848-9.208
				c2.565-2.455,5.733-3.683,9.504-3.683c3.464,0,6.171,0.713,8.122,2.138l3.124-3.749l4.077,3.848l-3.749,2.828
				c1.6,2.083,2.4,4.801,2.4,8.155c0,3.551-1.107,6.533-3.321,8.944c-2.215,2.412-5.12,3.793-8.714,4.144l-5.163,0.526
				c-0.614,0.066-1.436,0.302-2.466,0.707c-1.031,0.406-1.546,0.937-1.546,1.595c0,0.899,1.074,1.348,3.223,1.348
				c0.942,0,2.411-0.17,4.406-0.51c1.995-0.34,3.474-0.509,4.439-0.509c3.464,0,6.166,0.828,8.106,2.483
				c1.941,1.656,2.911,3.951,2.911,6.889c0,3.244-1.453,5.864-4.357,7.86c-2.905,1.995-6.583,2.993-11.033,2.993
				c-2.28,0-4.681-0.406-7.202-1.217C387.594,92.714,385.566,91.728,384.032,90.566z M397.285,50.085
				c-2.17,0-3.941,0.768-5.311,2.302c-1.371,1.535-2.055,3.398-2.055,5.59c0,2.456,0.663,4.489,1.989,6.1
				c1.326,1.611,3.119,2.417,5.377,2.417c2.214,0,3.946-0.784,5.196-2.351c1.25-1.567,1.874-3.622,1.874-6.166
				c0-2.192-0.674-4.056-2.023-5.59C400.984,50.853,399.302,50.085,397.285,50.085z"/>
			<path fill="#161620" d="M467.73,80.931V60.444c0-3.749-0.565-6.374-1.693-7.876c-1.129-1.501-3.02-2.252-5.673-2.252
				c-1.426,0-2.916,0.427-4.473,1.282c-1.557,0.855-2.752,1.907-3.585,3.157v26.176h-6.248v-35.22h4.275l1.973,4.538
				c2.061-3.464,5.426-5.196,10.096-5.196c7.717,0,11.575,4.692,11.575,14.075v21.803H467.73z"/>
		</g>
	</g>
</g>
</svg>
