<?xml version="1.0" encoding="utf-8"?>
<!-- Generator: Adobe Illustrator 23.0.5, SVG Export Plug-In . SVG Version: 6.00 Build 0)  -->
<svg version="1.1" id="Capa_1" xmlns="http://www.w3.org/2000/svg" xmlns:xlink="http://www.w3.org/1999/xlink" x="0px" y="0px"
	 viewBox="0 0 285.3 285.3" enable-background="new 0 0 285.3 285.3" xml:space="preserve">
<rect x="0" fill="#161620" width="285.3" height="285.3"/>
<g>
	<g>
		<g>
			<linearGradient id="SVGID_2_" gradientUnits="userSpaceOnUse" x1="71.8326" y1="156.0168" x2="152.3746" y2="74.8355">
				<stop  offset="0.0054" style="stop-color:#19B5FE"/>
				<stop  offset="1" style="stop-color:#58DBE3"/>
			</linearGradient>
			<polygon fill="url(#SVGID_2_)" points="140.489,102.716 108.982,102.716 103.262,102.716 103.262,108.436 103.262,139.944 
				108.982,139.944 108.982,108.436 140.489,108.436 			"/>
			<linearGradient id="SVGID_3_" gradientUnits="userSpaceOnUse" x1="101.1977" y1="185.1507" x2="181.7397" y2="103.9694">
				<stop  offset="0.0054" style="stop-color:#19B5FE"/>
				<stop  offset="1" style="stop-color:#58DBE3"/>
			</linearGradient>
			<polygon fill="url(#SVGID_3_)" points="177.41,102.716 145.902,102.716 145.902,108.436 177.41,108.436 177.41,139.944 
				183.129,139.944 183.129,108.436 183.129,102.716 			"/>
		</g>
		<g>
			<linearGradient id="SVGID_4_" gradientUnits="userSpaceOnUse" x1="130.3936" y1="214.1167" x2="210.9356" y2="132.9354">
				<stop  offset="0.0054" style="stop-color:#19B5FE"/>
				<stop  offset="1" style="stop-color:#58DBE3"/>
			</linearGradient>
			<polygon fill="url(#SVGID_4_)" points="177.41,145.356 177.41,176.864 145.902,176.864 145.902,182.584 177.41,182.584 
				183.129,182.584 183.129,176.864 183.129,145.356 			"/>
			<linearGradient id="SVGID_6_" gradientUnits="userSpaceOnUse" x1="101.0285" y1="184.9828" x2="181.5705" y2="103.8016">
				<stop  offset="0.0054" style="stop-color:#19B5FE"/>
				<stop  offset="1" style="stop-color:#58DBE3"/>
			</linearGradient>
			<polygon fill="url(#SVGID_6_)" points="140.489,176.864 108.982,176.864 108.982,145.356 103.262,145.356 103.262,176.864 
				103.262,182.584 108.982,182.584 140.489,182.584 			"/>
		</g>
	</g>
	<rect x="64.35" y="129.123" fill="#161620" width="156.6" height="27.225"/>
	<g>
		<linearGradient id="SVGID_7_" gradientUnits="userSpaceOnUse" x1="60.3092" y1="144.4014" x2="188.2045" y2="126.7422">
			<stop  offset="0.0054" style="stop-color:#19B5FE"/>
			<stop  offset="1" style="stop-color:#58DBE3"/>
		</linearGradient>
		<path fill="url(#SVGID_7_)" d="M78.051,134.703c0.899-0.15,2.076-0.279,3.573-0.279c1.84,0,3.188,0.429,4.043,1.198
			c0.77,0.685,1.262,1.733,1.262,3.015c0,1.306-0.385,2.332-1.112,3.082c-1.006,1.049-2.589,1.583-4.407,1.583
			c-0.556,0-1.07-0.023-1.498-0.129v5.776h-1.861V134.703z M79.912,141.655c0.407,0.108,0.92,0.15,1.54,0.15
			c2.247,0,3.616-1.113,3.616-3.059c0-1.925-1.369-2.846-3.402-2.846c-0.813,0-1.434,0.064-1.755,0.15V141.655z"/>
		<linearGradient id="SVGID_8_" gradientUnits="userSpaceOnUse" x1="60.7783" y1="147.7988" x2="188.6736" y2="130.1396">
			<stop  offset="0.0054" style="stop-color:#19B5FE"/>
			<stop  offset="1" style="stop-color:#58DBE3"/>
		</linearGradient>
		<path fill="url(#SVGID_8_)" d="M89.032,141.826c0-1.219-0.021-2.266-0.085-3.23h1.647l0.086,2.054h0.064
			c0.471-1.39,1.626-2.268,2.888-2.268c0.192,0,0.342,0.021,0.513,0.044v1.775c-0.192-0.044-0.385-0.044-0.642-0.044
			c-1.326,0-2.268,0.984-2.525,2.397c-0.043,0.256-0.064,0.578-0.064,0.876v5.52h-1.883V141.826z"/>
		<linearGradient id="SVGID_9_" gradientUnits="userSpaceOnUse" x1="60.9701" y1="149.188" x2="188.8654" y2="131.5288">
			<stop  offset="0.0054" style="stop-color:#19B5FE"/>
			<stop  offset="1" style="stop-color:#58DBE3"/>
		</linearGradient>
		<path fill="url(#SVGID_9_)" d="M105.188,143.688c0,3.829-2.674,5.498-5.156,5.498c-2.781,0-4.963-2.054-4.963-5.327
			c0-3.444,2.289-5.477,5.134-5.477C103.177,138.382,105.188,140.542,105.188,143.688z M96.994,143.794
			c0,2.268,1.283,3.98,3.123,3.98c1.797,0,3.145-1.691,3.145-4.022c0-1.754-0.878-3.958-3.102-3.958
			C97.957,139.795,96.994,141.849,96.994,143.794z"/>
		<linearGradient id="SVGID_10_" gradientUnits="userSpaceOnUse" x1="60.931" y1="148.9044" x2="188.8263" y2="131.2452">
			<stop  offset="0.0054" style="stop-color:#19B5FE"/>
			<stop  offset="1" style="stop-color:#58DBE3"/>
		</linearGradient>
		<path fill="url(#SVGID_10_)" d="M116.489,133.761v12.516c0,0.92,0.043,1.968,0.086,2.674h-1.669l-0.086-1.798h-0.064
			c-0.556,1.157-1.797,2.033-3.487,2.033c-2.503,0-4.45-2.118-4.45-5.262c-0.021-3.444,2.139-5.541,4.642-5.541
			c1.604,0,2.653,0.749,3.123,1.563h0.043v-6.184H116.489z M114.628,142.81c0-0.235-0.021-0.556-0.085-0.791
			c-0.278-1.178-1.305-2.162-2.717-2.162c-1.947,0-3.102,1.712-3.102,3.98c0,2.096,1.048,3.829,3.059,3.829
			c1.262,0,2.417-0.855,2.76-2.245c0.064-0.258,0.085-0.514,0.085-0.813V142.81z"/>
		<linearGradient id="SVGID_11_" gradientUnits="userSpaceOnUse" x1="61.4154" y1="152.4127" x2="189.3107" y2="134.7535">
			<stop  offset="0.0054" style="stop-color:#19B5FE"/>
			<stop  offset="1" style="stop-color:#58DBE3"/>
		</linearGradient>
		<path fill="url(#SVGID_11_)" d="M128.305,146.106c0,1.09,0.021,2.031,0.085,2.845h-1.668l-0.107-1.69h-0.043
			c-0.471,0.834-1.583,1.925-3.423,1.925c-1.626,0-3.573-0.92-3.573-4.536v-6.053h1.883v5.712c0,1.968,0.62,3.317,2.31,3.317
			c1.262,0,2.14-0.878,2.482-1.733c0.107-0.258,0.171-0.599,0.171-0.963v-6.332h1.883V146.106z"/>
		<linearGradient id="SVGID_12_" gradientUnits="userSpaceOnUse" x1="61.6431" y1="154.0617" x2="189.5384" y2="136.4026">
			<stop  offset="0.0054" style="stop-color:#19B5FE"/>
			<stop  offset="1" style="stop-color:#58DBE3"/>
		</linearGradient>
		<path fill="url(#SVGID_12_)" d="M138.815,148.587c-0.492,0.235-1.583,0.599-2.974,0.599c-3.123,0-5.156-2.118-5.156-5.283
			c0-3.188,2.182-5.52,5.562-5.52c1.113,0,2.096,0.279,2.61,0.556l-0.428,1.434c-0.449-0.235-1.155-0.491-2.182-0.491
			c-2.375,0-3.658,1.775-3.658,3.914c0,2.397,1.54,3.872,3.594,3.872c1.07,0,1.775-0.256,2.31-0.491L138.815,148.587z"/>
		<linearGradient id="SVGID_13_" gradientUnits="userSpaceOnUse" x1="61.642" y1="154.054" x2="189.5373" y2="136.3948">
			<stop  offset="0.0054" style="stop-color:#19B5FE"/>
			<stop  offset="1" style="stop-color:#58DBE3"/>
		</linearGradient>
		<path fill="url(#SVGID_13_)" d="M143.57,136.114v2.482h2.696v1.434h-2.696v5.583c0,1.284,0.364,2.012,1.412,2.012
			c0.513,0,0.813-0.044,1.091-0.129l0.086,1.434c-0.364,0.127-0.942,0.256-1.669,0.256c-0.877,0-1.583-0.3-2.032-0.791
			c-0.513-0.578-0.727-1.498-0.727-2.717v-5.647h-1.605v-1.434h1.605v-1.925L143.57,136.114z"/>
		<linearGradient id="SVGID_14_" gradientUnits="userSpaceOnUse" x1="61.6998" y1="154.4725" x2="189.5951" y2="136.8133">
			<stop  offset="0.0054" style="stop-color:#19B5FE"/>
			<stop  offset="1" style="stop-color:#58DBE3"/>
		</linearGradient>
		<path fill="url(#SVGID_14_)" d="M154.85,134.531v14.42h-1.883v-14.42H154.85z"/>
		<linearGradient id="SVGID_15_" gradientUnits="userSpaceOnUse" x1="62.1942" y1="158.0533" x2="190.0895" y2="140.3941">
			<stop  offset="0.0054" style="stop-color:#19B5FE"/>
			<stop  offset="1" style="stop-color:#58DBE3"/>
		</linearGradient>
		<path fill="url(#SVGID_15_)" d="M158.255,141.399c0-1.092-0.043-1.947-0.085-2.803h1.647l0.086,1.69h0.064
			c0.578-0.984,1.54-1.904,3.273-1.904c1.391,0,2.461,0.855,2.91,2.075h0.043c0.321-0.599,0.749-1.026,1.177-1.347
			c0.621-0.472,1.284-0.728,2.268-0.728c1.391,0,3.423,0.899,3.423,4.492v6.076h-1.84v-5.841c0-2.01-0.749-3.188-2.246-3.188
			c-1.091,0-1.904,0.793-2.246,1.691c-0.086,0.277-0.15,0.597-0.15,0.941v6.396h-1.84v-6.205c0-1.646-0.727-2.824-2.161-2.824
			c-1.155,0-2.032,0.942-2.332,1.883c-0.107,0.256-0.15,0.599-0.15,0.92v6.226h-1.84V141.399z"/>
		<linearGradient id="SVGID_16_" gradientUnits="userSpaceOnUse" x1="62.4721" y1="160.0654" x2="190.3673" y2="142.4063">
			<stop  offset="0.0054" style="stop-color:#19B5FE"/>
			<stop  offset="1" style="stop-color:#58DBE3"/>
		</linearGradient>
		<path fill="url(#SVGID_16_)" d="M183.381,146.468c0,0.899,0.043,1.777,0.149,2.482h-1.69l-0.15-1.305h-0.064
			c-0.577,0.813-1.69,1.54-3.166,1.54c-2.096,0-3.166-1.475-3.166-2.974c0-2.503,2.225-3.872,6.226-3.851v-0.213
			c0-0.834-0.236-2.397-2.353-2.376c-0.984,0-1.99,0.279-2.717,0.77l-0.428-1.261c0.856-0.535,2.118-0.899,3.423-0.899
			c3.166,0,3.936,2.16,3.936,4.214V146.468z M181.562,143.667c-2.054-0.044-4.386,0.321-4.386,2.331
			c0,1.242,0.813,1.798,1.755,1.798c1.369,0,2.246-0.855,2.545-1.733c0.064-0.214,0.086-0.429,0.086-0.599V143.667z"/>
		<linearGradient id="SVGID_17_" gradientUnits="userSpaceOnUse" x1="62.9445" y1="163.4875" x2="190.8398" y2="145.8283">
			<stop  offset="0.0054" style="stop-color:#19B5FE"/>
			<stop  offset="1" style="stop-color:#58DBE3"/>
		</linearGradient>
		<path fill="url(#SVGID_17_)" d="M195.28,147.432c0,2.397-0.492,3.829-1.476,4.749c-1.027,0.921-2.481,1.242-3.787,1.242
			c-1.241,0-2.61-0.3-3.444-0.855l0.471-1.456c0.685,0.449,1.754,0.834,3.038,0.834c1.926,0,3.338-1.005,3.338-3.635v-1.134h-0.043
			c-0.557,0.962-1.69,1.731-3.295,1.731c-2.567,0-4.407-2.181-4.407-5.048c0-3.508,2.289-5.477,4.685-5.477
			c1.797,0,2.76,0.92,3.23,1.775h0.043l0.064-1.561h1.668c-0.064,0.726-0.085,1.583-0.085,2.824V147.432z M193.398,142.683
			c0-0.322-0.021-0.599-0.107-0.834c-0.342-1.113-1.241-2.012-2.631-2.012c-1.797,0-3.081,1.519-3.081,3.916
			c0,2.031,1.048,3.723,3.059,3.723c1.177,0,2.225-0.728,2.61-1.927c0.107-0.321,0.15-0.685,0.15-1.005V142.683z"/>
		<linearGradient id="SVGID_18_" gradientUnits="userSpaceOnUse" x1="62.8911" y1="163.1007" x2="190.7864" y2="145.4415">
			<stop  offset="0.0054" style="stop-color:#19B5FE"/>
			<stop  offset="1" style="stop-color:#58DBE3"/>
		</linearGradient>
		<path fill="url(#SVGID_18_)" d="M199.437,144.115c0.043,2.547,1.647,3.595,3.551,3.595c1.348,0,2.182-0.235,2.867-0.535
			l0.342,1.347c-0.663,0.3-1.819,0.664-3.466,0.664c-3.187,0-5.091-2.118-5.091-5.242c0-3.123,1.84-5.562,4.856-5.562
			c3.402,0,4.279,2.953,4.279,4.857c0,0.385-0.021,0.664-0.064,0.876H199.437z M204.957,142.768c0.021-1.178-0.492-3.038-2.61-3.038
			c-1.925,0-2.738,1.733-2.888,3.038H204.957z"/>
	</g>
</g>
</svg>
